<?xml version="1.0" encoding="utf-8"?>
<!-- Generator: Adobe Illustrator 24.2.0, SVG Export Plug-In . SVG Version: 6.00 Build 0)  -->
<svg version="1.1" id="Layer_1" xmlns="http://www.w3.org/2000/svg" xmlns:xlink="http://www.w3.org/1999/xlink" x="0px" y="0px"
	 viewBox="0 0 50 50" style="enable-background:new 0 0 50 50;" xml:space="preserve">
<style type="text/css">
	.st0{fill:url(#SVGID_1_);}
	.st1{fill:#009CDE;}
</style>
<g>
	<g>
		<linearGradient id="SVGID_1_" gradientUnits="userSpaceOnUse" x1="0" y1="24.9287" x2="50" y2="24.9287">
			<stop  offset="0" style="stop-color:#FF0000"/>
			<stop  offset="1" style="stop-color:#9B0F00"/>
		</linearGradient>
		<path class="st0" d="M22.57,45.61L0,4.25h7.43l18.27,34.47L43.15,4.25H50L28.36,45.61H22.57z"/>
	</g>
	<path class="st1" d="M46.54,39.72c-0.31,0.15-0.65,0.25-0.99,0.31c-0.3,0.06-0.61,0.09-0.92,0.1c-0.8,0.02-1.6-0.09-2.36-0.33
		c-0.6-0.19-1.15-0.51-1.6-0.93c-0.42-0.41-0.74-0.9-0.92-1.46c-0.2-0.6-0.3-1.23-0.3-1.87c0-0.59,0.1-1.18,0.29-1.74
		c0.19-0.6,0.5-1.15,0.9-1.62c0.43-0.51,0.96-0.92,1.56-1.21c0.71-0.34,1.5-0.5,2.28-0.48c1.83,0,3.2,0.56,4.13,1.69
		c0.93,1.13,1.39,2.74,1.39,4.85c0.02,1.25-0.16,2.49-0.54,3.67c-0.33,1.02-0.91,1.94-1.68,2.68c-0.83,0.76-1.82,1.32-2.9,1.65
		c-1.36,0.4-2.77,0.6-4.18,0.59c-0.01-0.45-0.04-0.89-0.06-1.32c-0.03-0.43-0.06-0.86-0.09-1.32c0.73-0.01,1.46-0.07,2.19-0.18
		c0.6-0.09,1.18-0.27,1.72-0.53c0.48-0.24,0.91-0.57,1.26-0.99C46.09,40.81,46.37,40.29,46.54,39.72z M44.98,37.66
		c0.34,0,0.68-0.03,1.02-0.1c0.28-0.04,0.54-0.13,0.79-0.27v-0.19c0-0.06,0-0.11,0.01-0.17c0.01-0.05,0.01-0.1,0.01-0.15
		c-0.01-0.48-0.05-0.96-0.13-1.43c-0.06-0.41-0.18-0.8-0.36-1.17c-0.16-0.32-0.4-0.59-0.69-0.79c-0.32-0.2-0.69-0.3-1.07-0.29
		c-0.31-0.01-0.62,0.07-0.89,0.21c-0.25,0.13-0.46,0.32-0.62,0.55c-0.16,0.23-0.27,0.48-0.35,0.74c-0.08,0.26-0.12,0.52-0.12,0.79
		c-0.05,0.62,0.15,1.23,0.56,1.7C43.52,37.47,44.14,37.66,44.98,37.66L44.98,37.66z"/>
</g>
</svg>
